<svg
              width="124"
              height="26"
              viewBox="0 0 124 26"
              fill="none"
              xmlns="http://www.w3.org/2000/svg"
            >
              <rect x="8" y="3.5" width="5" height="17" fill="white" />
              <rect x="17" y="12.5" width="5" height="8" fill="white" />
              <rect y="3.5" width="5" height="17" fill="white" />
              <path
                d="M0 20.5H22V25.5H5C2.23858 25.5 0 23.2614 0 20.5Z"
                fill="white"
              />
              <path
                d="M13 3.5H25C27.7614 3.5 30 5.73858 30 8.5H13V3.5Z"
                fill="white"
              />
              <rect x="25" y="8.5" width="5" height="17" fill="white" />
              <rect x="42" y="6.5" width="4" height="15" fill="white" />
              <rect x="54" y="6.5" width="4" height="15" fill="white" />
              <path
                d="M42 21.5H58V25.5H46C43.7909 25.5 42 23.7091 42 21.5Z"
                fill="white"
              />
              <rect
                x="76"
                y="25.5"
                width="4"
                height="15"
                transform="rotate(-180 76 25.5)"
                fill="white"
              />
              <rect
                x="64"
                y="25.5"
                width="4"
                height="15"
                transform="rotate(-180 64 25.5)"
                fill="white"
              />
              <path
                d="M76 10.5L60 10.5V6.5L72 6.5C74.2091 6.5 76 8.29086 76 10.5Z"
                fill="white"
              />
              <rect
                x="82"
                y="4.5"
                width="4"
                height="4"
                transform="rotate(-180 82 4.5)"
                fill="white"
              />
              <rect
                x="82"
                y="25.5"
                width="4"
                height="19"
                transform="rotate(-180 82 25.5)"
                fill="white"
              />
              <rect
                x="100"
                y="25.5"
                width="4"
                height="15"
                transform="rotate(-180 100 25.5)"
                fill="white"
              />
              <rect
                x="88"
                y="25.5"
                width="4"
                height="15"
                transform="rotate(-180 88 25.5)"
                fill="white"
              />
              <path
                d="M100 10.5L84 10.5V6.5L96 6.5C98.2091 6.5 100 8.29086 100 10.5Z"
                fill="white"
              />
              <path
                d="M119.272 15.963C119.272 16.623 119.228 17.217 119.14 17.745H105.775C105.885 19.065 106.347 20.099 107.161 20.847C107.975 21.595 108.976 21.969 110.164 21.969C111.88 21.969 113.101 21.232 113.827 19.758H118.81C118.282 21.518 117.27 22.97 115.774 24.114C114.278 25.236 112.441 25.797 110.263 25.797C108.503 25.797 106.919 25.412 105.511 24.642C104.125 23.85 103.036 22.739 102.244 21.309C101.474 19.879 101.089 18.229 101.089 16.359C101.089 14.467 101.474 12.806 102.244 11.376C103.014 9.946 104.092 8.846 105.478 8.076C106.864 7.306 108.459 6.921 110.263 6.921C112.001 6.921 113.552 7.295 114.916 8.043C116.302 8.791 117.369 9.858 118.117 11.244C118.887 12.608 119.272 14.181 119.272 15.963ZM114.487 14.643C114.465 13.455 114.036 12.509 113.2 11.805C112.364 11.079 111.341 10.716 110.131 10.716C108.987 10.716 108.019 11.068 107.227 11.772C106.457 12.454 105.984 13.411 105.808 14.643H114.487Z"
                fill="white"
              />
            </svg>